<svg xmlns="http://www.w3.org/2000/svg" width="335" height="335" viewBox="0 0 335 335"><path fill="#75B843" d="M290.163 189.332l-122.744-70.867-122.744 70.867 122.744 70.867z"/><path fill="#FF9F62" d="M44.675 189.332l73.647 42.52 73.647-42.52-73.647-42.519z"/><path fill="#ACD7DB" d="M93.773 217.678l49.098-28.346-49.098-28.346h-.001l-49.097 28.346 49.097 28.346"/><path opacity=".8" fill="#FF9F62" d="M44.675 146.813l73.647 42.519 73.647-42.519-73.647-42.52z"/><path opacity=".8" fill="#FF9F62" d="M118.351 189.525l12.274-7.086-36.823-21.259h-.001l-12.273 7.086z"/><path opacity=".7" fill="#FF9F62" d="M118.323 146.813l-24.55 14.173h.001l36.823 21.26 24.549-14.174z"/><path opacity=".8" fill="#ACD7DB" d="M93.773 132.649l49.098-28.346-49.098-28.346h-.001l-49.097 28.346 49.097 28.346"/><path d="M161.044 243.668l2.255-1.358 1.081 1.082.062-.038a4.347 4.347 0 0 1 .061-.879c.047-.283.146-.562.294-.826.146-.265.355-.53.624-.798.27-.267.619-.53 1.05-.789a6.002 6.002 0 0 1 2.143-.786 3.743 3.743 0 0 1 2.177.252 3.73 3.73 0 0 1 .452-1.789c.3-.549.847-1.063 1.639-1.54 1.143-.689 2.23-1.023 3.263-1.005 1.034.019 2.022.499 2.962 1.439l5.359 5.363-2.384 1.436-4.53-4.537c-.311-.31-.607-.585-.891-.824a2.77 2.77 0 0 0-.898-.516 2.12 2.12 0 0 0-1.023-.068c-.365.059-.777.227-1.235.503-.81.488-1.213 1.021-1.215 1.599s.327 1.198.987 1.859l4.547 4.552-2.381 1.434-4.98-4.987c-.542-.541-1.084-.865-1.632-.978s-1.182.05-1.906.486a2.623 2.623 0 0 0-.752.669 1.897 1.897 0 0 0-.361.844c-.045.303-.01.617.108.946.118.331.337.657.657.976l4.608 4.611-2.38 1.434-7.761-7.767zm33.242-10.357c.21.21.399.337.565.381.164.044.359-.002.584-.137l.25-.15c.097-.058.199-.135.307-.23l1.184 1.188c-.065.068-.15.157-.256.262a9.481 9.481 0 0 1-.34.313 5.406 5.406 0 0 1-.375.295 4.116 4.116 0 0 1-.339.23c-.487.294-.96.466-1.421.52-.459.054-.914-.067-1.362-.358-.143.615-.483 1.206-1.023 1.771a8.452 8.452 0 0 1-1.769 1.428c-.487.293-1 .525-1.542.7a5.894 5.894 0 0 1-1.6.29 4.216 4.216 0 0 1-1.519-.215 3.308 3.308 0 0 1-1.301-.816c-.481-.48-.748-.945-.805-1.393a2.041 2.041 0 0 1 .254-1.285c.227-.408.55-.8.967-1.173.421-.372.86-.729 1.322-1.073.373-.319.741-.609 1.105-.869.365-.26.666-.51.908-.752.236-.24.38-.473.431-.705.047-.23-.053-.47-.304-.721a1.414 1.414 0 0 0-.759-.408 2.335 2.335 0 0 0-.866.004c-.289.055-.58.15-.869.283a8.57 8.57 0 0 0-.789.417c-.668.402-1.119.834-1.35 1.294-.232.46-.167.919.199 1.372l-2.38 1.435c-.458-.525-.707-1.041-.746-1.549-.036-.506.07-.996.321-1.469.254-.475.625-.921 1.114-1.345a12.066 12.066 0 0 1 1.636-1.179 10.84 10.84 0 0 1 1.686-.824 7.23 7.23 0 0 1 1.779-.446 4.738 4.738 0 0 1 1.689.101c.535.135 1.01.408 1.42.818l3.994 3.995zm-4.54-.729c-.194.389-.535.758-1.03 1.113-.494.354-.97.725-1.429 1.114a5.846 5.846 0 0 0-.602.567 2.087 2.087 0 0 0-.404.604 1.01 1.01 0 0 0-.053.633c.051.219.187.438.405.658.19.19.429.305.712.343s.568.03.86-.026c.292-.055.579-.145.866-.271.289-.125.537-.25.744-.376.266-.16.526-.357.783-.591.256-.235.459-.495.61-.778.152-.283.226-.573.222-.867-.004-.293-.142-.576-.411-.848l-1.273-1.275zm1.138-6.896l2.255-1.359 1.052 1.053.042-.025c-.117-.652.027-1.258.43-1.812s.953-1.043 1.649-1.463c.851-.512 1.696-.852 2.547-1.018a7.071 7.071 0 0 1 2.464-.064 7.183 7.183 0 0 1 2.252.748 8.029 8.029 0 0 1 1.918 1.419 6.49 6.49 0 0 1 1.234 1.687 3.95 3.95 0 0 1 .442 1.816c-.009.605-.192 1.197-.554 1.775-.357.578-.935 1.105-1.727 1.584-.35.21-.721.396-1.113.561a6.97 6.97 0 0 1-1.219.387 6.287 6.287 0 0 1-1.271.152 4.513 4.513 0 0 1-1.227-.139l-.041.023 3.873 3.877-2.383 1.435-10.623-10.637zm12.197-1.119a5.47 5.47 0 0 0-1.208-.908 5.013 5.013 0 0 0-1.441-.538 4.651 4.651 0 0 0-1.555-.051 3.94 3.94 0 0 0-1.528.549c-1.001.604-1.507 1.31-1.515 2.115-.008.808.404 1.627 1.234 2.457a5.51 5.51 0 0 0 1.285.969 4.45 4.45 0 0 0 1.459.506 4.67 4.67 0 0 0 1.52-.002 4.137 4.137 0 0 0 1.495-.563c.542-.327.922-.685 1.138-1.07.215-.388.318-.782.307-1.183a2.533 2.533 0 0 0-.35-1.186 5.065 5.065 0 0 0-.841-1.095zm-2.395-9.529l2.381-1.437 10.715 10.727-2.38 1.436-10.716-10.726zm23.002.552c.21.211.398.338.564.383.166.044.361-.002.584-.136l.25-.151c.098-.059.198-.135.304-.231l1.188 1.188a8.076 8.076 0 0 1-.598.575 5.064 5.064 0 0 1-.371.296c-.13.095-.243.171-.341.23-.488.292-.962.467-1.421.519-.46.053-.913-.066-1.362-.357-.145.614-.483 1.206-1.024 1.771a8.489 8.489 0 0 1-1.769 1.429 7.285 7.285 0 0 1-1.539.699 5.963 5.963 0 0 1-1.602.291c-.526.02-1.033-.052-1.521-.216s-.921-.435-1.301-.815c-.479-.48-.749-.945-.804-1.393a2.075 2.075 0 0 1 .254-1.285c.229-.409.549-.801.97-1.174.418-.373.86-.729 1.321-1.072.37-.32.738-.609 1.104-.87.365-.26.666-.51.907-.75.238-.241.383-.476.431-.706.05-.23-.053-.47-.301-.721a1.417 1.417 0 0 0-.76-.408 2.351 2.351 0 0 0-.865.003 3.773 3.773 0 0 0-.873.285c-.286.134-.55.272-.788.416-.668.401-1.118.834-1.349 1.294-.231.46-.166.918.2 1.372l-2.382 1.435c-.458-.527-.706-1.042-.744-1.55-.038-.505.07-.995.322-1.469.252-.473.623-.921 1.114-1.347a12 12 0 0 1 1.636-1.176 10.45 10.45 0 0 1 1.686-.823 7.122 7.122 0 0 1 1.776-.447 4.709 4.709 0 0 1 1.692.101 3.008 3.008 0 0 1 1.416.818l3.996 3.992zm-4.542-.727c-.192.387-.535.76-1.029 1.113s-.97.725-1.429 1.112a6.46 6.46 0 0 0-.604.569 2.08 2.08 0 0 0-.4.602 1.01 1.01 0 0 0-.055.635c.052.219.188.438.407.657.19.19.426.306.709.343.284.037.569.031.86-.026a3.97 3.97 0 0 0 .868-.271c.287-.124.536-.25.746-.375.263-.16.524-.356.78-.592.256-.234.46-.494.611-.777.15-.285.226-.572.221-.867-.004-.295-.143-.576-.41-.848l-1.275-1.275zm-1.818-9.855l2.381-1.435 3.963 3.966.041-.025a2.443 2.443 0 0 1 .095-.877c.087-.291.221-.576.4-.854.181-.277.4-.539.658-.783.258-.243.539-.457.847-.643.848-.511 1.697-.851 2.547-1.016a7.018 7.018 0 0 1 4.715.684 7.968 7.968 0 0 1 1.919 1.419c.52.521.931 1.082 1.232 1.688a3.92 3.92 0 0 1 .444 1.814c-.009.606-.194 1.198-.553 1.776-.357.577-.935 1.104-1.729 1.584-.361.217-.745.42-1.149.607s-.822.332-1.256.433a5.78 5.78 0 0 1-1.299.157 3.9 3.9 0 0 1-1.311-.222l-.041.024 1.064 1.066-2.254 1.36-10.714-10.723zm15.153 1.841a5.315 5.315 0 0 0-1.208-.907 4.926 4.926 0 0 0-1.441-.539 4.622 4.622 0 0 0-1.555-.051c-.53.07-1.041.255-1.527.547-1.002.604-1.506 1.311-1.514 2.117-.01.808.402 1.627 1.232 2.457.391.391.818.715 1.287.969.468.256.952.426 1.459.506.501.081 1.01.081 1.52-.002a4.184 4.184 0 0 0 1.492-.562c.544-.328.923-.686 1.139-1.072.219-.387.318-.78.307-1.184-.013-.4-.127-.797-.348-1.186s-.501-.754-.843-1.093z" fill="#FFF"/></svg>