<svg xmlns="http://www.w3.org/2000/svg" width="335" height="335" viewBox="0 0 335 335"><path fill="#FFC745" d="M290.906 185.151l-122.744-70.867-122.744 70.867 122.744 70.868z"/><path fill="#FF7A00" d="M45.418 185.151l73.646 42.52 73.647-42.52-73.647-42.519z"/><path fill="#86415E" d="M94.516 213.497l49.097-28.346-49.097-28.345-49.098 28.345 49.098 28.346"/><path opacity=".7" fill="#FF7A00" d="M45.418 142.632l73.646 42.519 73.647-42.519-73.647-42.52z"/><path opacity=".7" fill="#FF7A00" d="M155.889 121.372l-36.823 21.26 36.823 21.26 36.824-21.26z"/><path opacity=".8" fill="#FF7A00" d="M119.094 185.151l12.275-7.086-36.824-21.259-12.274 7.086z"/><path opacity=".7" fill="#FF7A00" d="M119.066 142.632l-24.55 14.174h.002l36.822 21.258 24.549-14.172z"/><path opacity=".7" fill="#86415E" d="M94.516 128.468l49.097-28.346-49.097-28.346-49.098 28.346 49.098 28.346"/><path opacity=".7" fill="#86415E" d="M94.545 128.462l36.832-21.264-12.283-7.092-36.831 21.265z"/><path fill="none" d="M207.751 240.414h95v18.668h-95z"/><text transform="translate(207.751 256.122)" fill="#031727" font-family="'HelveticaNeue-Medium'" font-size="22">maplab.</text></svg>