<svg xmlns="http://www.w3.org/2000/svg" viewBox="0 0 335 335"><style>.st0{display:none;fill:none;stroke:#000;stroke-width:.25;stroke-miterlimit:10}.st1{fill:#ffc745}.st2{fill:#ff7a00}.st3{fill:#86415e}.st4{fill:#ffa24c}.st5{fill:#ff7e15}.st6{fill:#ff4d00}.st7{fill:#86291c}.st8{fill:#ff9115}.st9{fill:#ff7b06}.st10{fill:#864113}.st11{fill:#862906}.st12{fill:#ff5006}.st13{fill:#ff3100}.st14{fill:#ff4e02}.st15{fill:#aa7a8e}.st16{fill:#aa4d2b}.st17{fill:#713a4f}.st18{fill:#712519}.st19{fill:#586473}.st20{fill:#fff}</style><path class="st0" d="M241.8 213.5l-122.7-70.9" id="Hilfslinien"/><g id="Ebene_4"><path class="st1" d="M82.2 163.9l-36.8 21.3 36.8-21.3m86-49.6l-12.3 7.1 36.8 21.3-36.8 21.3 36.8 21.3-73.6 42.5-73.6-42.5L168.2 256l122.7-70.9-122.7-70.8"/><path class="st2" d="M45.4 185.2l73.7 42.5 73.6-42.5-73.6-42.6-73.7 42.6"/><path class="st3" d="M94.5 213.5l49.1-28.3-49.1-28.4-49.1 28.4 49.1 28.3"/><path class="st4" d="M131.4 107.2l-36.9 21.3-12.3-7.1-36.8 21.2 36.8 21.3 73.7-42.5-24.5-14.2"/><path class="st5" d="M155.9 121.4l-73.7 42.5 36.9-21.3 36.8-21.2"/><path class="st6" d="M119.1 142.6l-36.9 21.3 12.3-7.1 24.6-14.2"/><path class="st7" d="M94.5 156.8l-12.3 7.1 36.9 21.3v-.1l-36.8-21.2 12.2-7.1"/><path class="st8" d="M155.9 121.4l36.8 21.2-36.8 21.3 36.8-21.3-36.8-21.2"/><path class="st9" d="M155.9 121.4l-36.8 21.2 36.8 21.3 36.8-21.3-36.8-21.2"/><path class="st2" d="M131.4 178.1h-.1.1"/><path class="st10" d="M131.3 178.1l-12.2 7v.1l12.3-7.1h-.1"/><path class="st6" d="M94.5 156.8l36.8 21.3-36.8-21.3"/><path class="st11" d="M94.5 156.8l-12.2 7.1 36.8 21.2 12.2-7-36.8-21.3"/><path class="st6" d="M155.9 163.9l-24.5 14.2 24.5-14.2"/><path class="st12" d="M119.1 142.6l36.8 21.3-36.8-21.3"/><path class="st13" d="M119.1 142.6l-24.6 14.2 36.9 21.3 24.5-14.2-36.8-21.3"/><path class="st14" d="M119.1 142.6l36.8 21.3-36.8-21.3"/><path class="st6" d="M131.4 178.1h-.1.1"/><path class="st13" d="M94.5 156.8l36.8 21.3h.1l-36.9-21.3"/><path class="st15" d="M94.5 71.8l-49.1 28.3 36.8 21.3 36.9-21.3 12.3 7.1 12.2-7.1-49.1-28.3"/><path class="st16" d="M119.1 100.1l-36.9 21.3 12.3 7.1-12.2-7.1 36.8-21.3"/><path class="st15" d="M131.4 107.2h-.1.1"/><path class="st16" d="M131.3 107.2l-36.8 21.3 36.9-21.3h-.1"/><path class="st17" d="M119.1 100.1l12.2 7.1h.1l-12.3-7.1"/><path class="st18" d="M119.1 100.1l-36.8 21.3 12.2 7.1 36.8-21.3-12.2-7.1"/></g><g id="typography"><path fill="none" d="M-73.9-21.3l-82.2 47.5-18.7-10.7L-92.5-32z"/><text transform="matrix(.75 -.433 .7794 .45 -161.162 23.324)" class="st19" font-family="HelveticaNeue-Medium" font-size="22">maplab.</text><path class="st20" d="M169 242.1c-1.3-.7-3-.7-4-.2-1 .6-1.1 1.6.3 2.4l4.8 2.8c.3.2.2.5-.2.8-.4.2-1 .3-1.3.1l-7.8-4.5c-.3-.2-.2-.5.2-.7.4-.2.9-.3 1.2-.1l.8.4c-.3-.7-.2-1.5 1-2.2 1.1-.7 2.8-.7 4.3-.3-.6-1.1-.2-2.1.9-2.7 1.6-.9 4.4-1 6.7.3l4.8 2.8c.3.2.2.5-.2.8-.4.2-1 .3-1.3.1l-4.8-2.8c-1.4-.8-3.2-.7-4.1-.2-1 .6-1.1 1.6.2 2.3l4.9 2.8c.4.2.2.5-.2.8-.3.2-.9.3-1.3.1l-4.9-2.8zm15.2-8.7l4.8 2.8c.3.2.3.5-.2.8-.4.2-.9.3-1.2.1l-.7-.4c.1.8-.1 1.7-1.3 2.4-1.4.8-3.2.9-4.9 0-2.1-1.2-.9-2.5 1.6-3.9l.9-.5-.4-.2c-1.1-.6-2.9-1-4.3-.2-1.3.7-1.1 1.3-1.4 1.4-.4.2-1 .1-1.3-.1-.6-.3.3-1.4 1.5-2.1 2.4-1.6 5.1-1.1 6.9-.1zm-.1 1.7l-.6.4c-1.5.9-2.8 1.8-1.5 2.5 1 .6 2 .5 2.8 0 1-.6 1.1-1.9.3-2.4l-1-.5zm.9-5.6l.8.4c-.3-.7-.2-1.5 1-2.2 1.8-1 4.9-.9 6.8.2l1.9 1.1c1.9 1.1 2.2 2.9.5 3.9-1.1.6-2.7.8-3.9.5l5 2.9c.3.2.2.5-.2.8-.4.2-1 .3-1.3.1l-12.1-7c-.3-.2-.2-.5.2-.7.5-.1 1-.2 1.3 0zm7.1-.7c-1.1-.6-3.1-.7-4.3-.1-1 .6-1.2 1.6.2 2.4l2.4 1.4c.5.3 2.6.5 3.8-.2 1.1-.6.9-1.8-.2-2.5l-1.9-1zm-3-7.8l13.1 7.6c.3.2.2.5-.2.8-.4.2-1 .3-1.3.1l-13.1-7.6c-.3-.2-.2-.5.2-.7.4-.3 1-.4 1.3-.2zm16.9-.1l4.8 2.8c.3.2.3.5-.2.8-.4.2-.9.3-1.2.1l-.7-.4c.1.8-.1 1.7-1.3 2.4-1.3.8-3.2.9-4.9 0-2.1-1.2-.9-2.5 1.6-3.9l.9-.5-.4-.2c-1.1-.6-2.9-1-4.3-.2-1.3.7-1.1 1.3-1.4 1.4-.4.2-1 .1-1.3-.1-.6-.3.3-1.4 1.5-2.1 2.4-1.7 5-1.2 6.9-.1zm-.1 1.6l-.6.4c-1.5.9-2.8 1.8-1.5 2.5 1 .6 2 .5 2.8 0 1-.6 1.1-1.9.3-2.4l-1-.5zm-4.4-8.7l6.1 3.5c-.3-.6-.2-1.5.9-2.2 1.8-1 4.9-.9 6.8.2l1.9 1.1c1.9 1.1 2.2 2.9.5 3.9-1.1.7-2.8.8-3.9.6l.7.4c.3.2.3.5-.1.7-.4.2-1 .3-1.3.1l-13.1-7.6c-.3-.2-.2-.5.2-.7.4-.1 1-.1 1.3 0zm12.4 2.5c-1.1-.6-3.1-.7-4.2-.1-1 .6-1.2 1.7.2 2.4l2.4 1.4c.5.3 2.6.5 3.8-.2 1.1-.6.9-1.8-.2-2.5l-2-1zm9.6-.3c.5.3.6.8.1 1.1-.5.3-1.4.3-1.9 0s-.6-.8-.1-1.1c.5-.4 1.3-.3 1.9 0z"/></g></svg>